<?xml version="1.0" encoding="UTF-8" standalone="no"?>
<!-- Created with Inkscape (http://www.inkscape.org/) -->

<svg
   xmlns:dc="http://purl.org/dc/elements/1.1/"
   xmlns:cc="http://creativecommons.org/ns#"
   xmlns:rdf="http://www.w3.org/1999/02/22-rdf-syntax-ns#"
   xmlns:svg="http://www.w3.org/2000/svg"
   xmlns="http://www.w3.org/2000/svg"
   xmlns:sodipodi="http://sodipodi.sourceforge.net/DTD/sodipodi-0.dtd"
   xmlns:inkscape="http://www.inkscape.org/namespaces/inkscape"
   width="13.052707mm"
   height="15.382635mm"
   viewBox="0 0 46.249747 54.5054"
   id="svg5413"
   version="1.1"
   inkscape:version="0.91 r13725"
   sodipodi:docname="cpg.svg">
  <defs
     id="defs5415" />
  <sodipodi:namedview
     id="base"
     pagecolor="#ffffff"
     bordercolor="#666666"
     borderopacity="1.0"
     inkscape:pageopacity="0.0"
     inkscape:pageshadow="2"
     inkscape:zoom="1.979899"
     inkscape:cx="171.30346"
     inkscape:cy="67.915923"
     inkscape:document-units="px"
     inkscape:current-layer="layer1"
     showgrid="false"
     fit-margin-top="0"
     fit-margin-left="0"
     fit-margin-right="0"
     fit-margin-bottom="0"
     inkscape:window-width="1920"
     inkscape:window-height="1027"
     inkscape:window-x="-8"
     inkscape:window-y="-8"
     inkscape:window-maximized="1" />
  <metadata
     id="metadata5418">
    <rdf:RDF>
      <cc:Work
         rdf:about="">
        <dc:format>image/svg+xml</dc:format>
        <dc:type
           rdf:resource="http://purl.org/dc/dcmitype/StillImage" />
        <dc:title></dc:title>
      </cc:Work>
    </rdf:RDF>
  </metadata>
  <g
     inkscape:label="Layer 1"
     inkscape:groupmode="layer"
     id="layer1"
     transform="translate(99.948088,-50.640409)">
    <g
       id="g4180"
       transform="matrix(0.48660163,0,0,0.48660163,-51.313185,25.998703)">
      <g
         id="g4193">
        <g
           transform="translate(11.616754,-15.152288)"
           id="g4185">
          <path
             d="m -18.132568,176.85506 -89.895932,0 c -7.97675,-8.33375 1.5063,-49.49492 42.927665,-49.49492 41.421358,0 50.358773,34.84771 46.968267,49.49492 z M -68.95173,66.768136 l -1.604911,-0.01423 c 0,0 2.003804,7.06702 2.75586,11.271485 0.799239,4.468256 4.388346,8.713008 6.976562,12.652343 1.294108,1.969668 2.33906,3.848821 2.732422,5.486328 0.393362,1.637508 0.231371,2.95982 -0.912109,4.314458 -0.30809,0.36498 -0.595459,0.51017 -0.992188,0.57421 -0.396729,0.064 -0.921159,0.01 -1.539062,-0.17382 -1.235808,-0.36692 -2.789549,-1.237558 -4.371094,-2.142582 -1.581545,-0.905023 -3.190431,-1.844067 -4.767578,-2.308594 -0.788574,-0.232263 -1.583994,-0.350673 -2.375,-0.216796 -0.791006,0.133876 -1.557551,0.557585 -2.125,1.246093 -1.934776,2.347538 -2.006721,5.552809 -1.19336,8.830079 0.813362,3.27727 2.515277,6.74428 4.41211,9.94531 3.793666,6.40207 -0.679264,11.61787 -0.679264,11.61787 l 10.528873,-1.11591 c 0,0 -4.5299,-5.25212 -8.214843,-11.47071 -1.842472,-3.10929 -3.46273,-6.46015 -4.201172,-9.43555 -0.738443,-2.97539 -0.591236,-5.45848 0.814453,-7.164058 0.304091,-0.368965 0.584655,-0.514078 0.974609,-0.580078 0.389954,-0.066 0.907641,-0.01478 1.521484,0.166016 1.227687,0.361598 2.779995,1.229864 4.361329,2.13477 1.581333,0.9049 3.192029,1.84687 4.773437,2.3164 0.790704,0.23477 1.589295,0.35465 2.382813,0.22656 0.793517,-0.12809 1.564792,-0.54244 2.140625,-1.22461 1.519382,-1.799945 1.796772,-3.942072 1.30664,-5.982417 -0.490131,-2.040345 -1.653772,-4.051806 -2.990234,-6.085937 -2.672924,-4.068263 -6.529908,-8.152187 -7.184431,-11.811384 -0.78943,-4.413415 -2.530971,-11.055246 -2.530971,-11.055246 z"
             style="fill:none;fill-rule:evenodd;stroke:#000000;stroke-width:1.89999998;stroke-linecap:butt;stroke-linejoin:miter;stroke-miterlimit:4;stroke-dasharray:none;stroke-opacity:1"
             id="path3358"
             inkscape:connector-curvature="0"
             sodipodi:nodetypes="ccscccssssccssssssccssssssssssssc" />
          <path
             sodipodi:nodetypes="ccccc"
             inkscape:connector-curvature="0"
             id="rect4176"
             d="m -70.047529,116.87547 3.750001,5.625 2.589285,3.92856 -7.008929,-0.53571 z"
             style="fill:#000000;fill-opacity:1;stroke:#000000;stroke-width:1.89999998;stroke-miterlimit:4;stroke-dasharray:none" />
        </g>
        <text
           sodipodi:linespacing="125%"
           id="text4189"
           y="156.64946"
           x="-87.572906"
           style="font-style:normal;font-weight:normal;font-size:40px;line-height:125%;font-family:sans-serif;letter-spacing:0px;word-spacing:0px;fill:#000000;fill-opacity:1;stroke:none;stroke-width:1px;stroke-linecap:butt;stroke-linejoin:miter;stroke-opacity:1"
           xml:space="preserve"><tspan
             style="font-style:normal;font-variant:normal;font-weight:bold;font-stretch:normal;font-size:35px;font-family:Roboto;-inkscape-font-specification:'Roboto Bold'"
             y="156.64946"
             x="-87.572906"
             id="tspan4191"
             sodipodi:role="line">CPG</tspan></text>
      </g>
    </g>
  </g>
</svg>
